<?xml version="1.0" standalone="no"?>
<!DOCTYPE svg PUBLIC "-//W3C//DTD SVG 20010904//EN"
 "http://www.w3.org/TR/2001/REC-SVG-20010904/DTD/svg10.dtd">
<svg version="1.0" xmlns="http://www.w3.org/2000/svg"
 width="643.000000pt" height="450.000000pt" viewBox="0 0 643.000000 450.000000"
 preserveAspectRatio="xMidYMid meet">

<g transform="translate(0.000000,450.000000) scale(0.100000,-0.100000)"
fill="#000000" stroke="none">
<path d="M4011 3888 c-280 -161 -331 -194 -317 -203 9 -7 160 -95 336 -196
176 -101 320 -190 320 -196 0 -7 -37 9 -82 36 -46 26 -132 76 -193 111 -60 35
-119 71 -130 80 -11 9 -27 20 -35 24 -8 4 -5 -1 8 -10 21 -15 22 -24 22 -133
0 -137 11 -166 85 -223 81 -62 166 -83 330 -83 120 0 149 3 207 23 37 13 85
36 107 53 l41 29 0 93 c0 107 -11 155 -45 195 -13 16 -79 61 -147 101 -95 56
-128 70 -148 66 -32 -7 -78 9 -86 30 -10 26 25 55 66 55 47 0 75 -20 68 -48
-5 -18 11 -31 122 -96 169 -99 174 -106 180 -261 l5 -120 20 35 c15 28 20 59
23 151 l4 117 111 63 c60 35 119 71 131 80 19 16 19 19 6 32 -18 18 -655 387
-667 387 -5 0 -159 -86 -342 -192z"/>
<path d="M2228 3984 c-16 -8 -29 -20 -30 -27 0 -7 -2 -16 -3 -22 -2 -5 -3 -18
-4 -28 -1 -14 -5 -16 -20 -7 -11 5 -27 10 -37 10 -9 0 12 -15 47 -34 35 -19
125 -68 199 -109 l135 -74 3 -316 c1 -200 6 -317 12 -317 6 0 10 8 10 18 0 15
6 18 30 14 l30 -4 0 321 0 321 -29 18 c-16 10 -95 53 -175 97 -80 44 -146 82
-146 86 0 3 11 11 24 17 22 10 45 0 210 -90 l186 -101 0 -309 0 -309 23 3 c20
3 22 8 22 66 -1 34 -2 178 -3 321 l-2 259 -195 106 c-204 111 -233 120 -287
90z"/>
<path d="M2040 3890 c-11 -11 -20 -24 -20 -28 0 -5 86 -56 190 -113 l190 -104
0 -317 c0 -205 4 -318 10 -318 6 0 10 113 10 319 l0 319 -142 77 c-165 89
-238 134 -238 145 0 4 15 15 33 24 27 13 29 16 10 16 -13 0 -32 -9 -43 -20z"/>
<path d="M4303 3704 c-11 -30 47 -45 88 -23 16 8 18 13 8 25 -16 20 -88 19
-96 -2z"/>
<path d="M3790 3606 c0 -2 7 -7 16 -10 8 -3 12 -2 9 4 -6 10 -25 14 -25 6z"/>
<path d="M3830 3586 c0 -3 14 -12 30 -21 17 -9 30 -13 30 -11 0 3 -13 12 -30
21 -16 9 -30 13 -30 11z"/>
<path d="M3374 3336 c-15 -11 13 -30 210 -145 124 -73 226 -138 226 -144 0 -6
3 -8 6 -4 7 6 30 -12 88 -68 26 -26 52 -41 71 -43 16 -1 80 -31 142 -66 112
-64 123 -66 123 -21 0 7 -53 44 -117 81 -65 36 -143 81 -173 99 -30 18 -168
98 -307 178 -216 125 -254 143 -269 133z"/>
<path d="M3490 3123 c0 -74 4 -113 13 -122 7 -8 -2 -6 -23 4 -87 43 11 -18
337 -207 l353 -206 10 37 c11 41 13 57 4 49 -3 -4 -49 20 -103 52 -54 31 -192
110 -307 175 -115 65 -210 119 -211 119 -1 1 -3 14 -5 29 -3 16 -11 32 -18 37
-12 8 -12 10 1 15 11 4 16 18 15 46 -1 33 -6 43 -33 60 l-33 21 0 -109z"/>
<path d="M3582 3100 c0 -19 2 -27 5 -17 2 9 2 25 0 35 -3 9 -5 1 -5 -18z"/>
<path d="M5270 3118 c0 -11 -657 -399 -714 -422 -16 -6 -34 -1 -75 23 -29 18
-55 31 -56 29 -2 -2 -6 -21 -9 -43 -3 -22 -3 -34 0 -28 4 9 11 10 25 3 16 -9
19 -22 19 -86 0 -69 -2 -75 -17 -69 -70 29 -81 13 -143 -210 -28 -104 -76
-273 -106 -374 -30 -102 -51 -188 -46 -193 26 -26 199 -119 214 -114 10 2 277
154 593 336 l575 332 -196 114 c-109 63 -199 114 -201 114 -2 0 -7 -10 -12
-22 -6 -16 -98 -73 -311 -193 -167 -93 -307 -171 -311 -173 -5 -2 -9 32 -9 76
l0 80 332 194 c182 107 333 199 336 206 2 6 -31 30 -72 54 -41 24 -75 45 -76
48 0 3 32 22 70 43 39 21 68 43 65 48 -4 5 -10 9 -15 9 -5 0 -153 -83 -329
-185 -177 -102 -324 -185 -326 -185 -3 0 -5 29 -5 65 0 69 5 75 45 49 23 -15
34 -10 392 197 202 117 380 219 395 228 35 20 35 27 -2 46 -23 12 -30 12 -30
3z m-217 -789 c-10 -9 -720 -418 -739 -426 -11 -4 -14 11 -14 72 0 71 2 79 29
106 35 34 45 35 90 8 19 -11 41 -19 50 -16 9 2 144 79 301 171 l285 166 3 -36
c2 -20 0 -40 -5 -45z"/>
<path d="M3650 3105 c0 -2 18 -14 40 -25 22 -11 40 -18 40 -15 0 2 -18 14 -40
25 -22 11 -40 18 -40 15z"/>
<path d="M3627 3085 c-4 -8 -2 -17 3 -20 6 -4 10 3 10 14 0 25 -6 27 -13 6z"/>
<path d="M3670 3041 c0 -17 4 -32 8 -35 4 -2 6 11 4 30 -5 42 -12 45 -12 5z"/>
<path d="M3590 3056 c0 -2 7 -7 16 -10 8 -3 12 -2 9 4 -6 10 -25 14 -25 6z"/>
<path d="M3740 3056 c0 -3 9 -10 20 -16 11 -6 20 -8 20 -6 0 3 -9 10 -20 16
-11 6 -20 8 -20 6z"/>
<path d="M3700 3034 c0 -25 19 -53 43 -64 l22 -11 -22 17 c-15 10 -23 27 -23
45 0 16 -4 29 -10 29 -5 0 -10 -7 -10 -16z"/>
<path d="M3823 3001 c9 -13 13 -31 10 -40 -4 -13 -3 -13 5 -2 5 7 16 18 23 23
12 8 11 9 -1 5 -8 -2 -23 6 -33 17 -19 21 -19 21 -4 -3z"/>
<path d="M3880 2966 c0 -2 9 -6 20 -9 11 -3 18 -1 14 4 -5 9 -34 13 -34 5z"/>
<path d="M3891 2924 c0 -11 3 -14 6 -6 3 7 2 16 -1 19 -3 4 -6 -2 -5 -13z"/>
<path d="M3827 2919 c7 -7 15 -10 18 -7 3 3 -2 9 -12 12 -14 6 -15 5 -6 -5z"/>
<path d="M3960 2906 c0 -14 4 -27 8 -30 5 -3 6 8 4 25 -5 35 -12 38 -12 5z"/>
<path d="M3930 2896 c0 -14 4 -27 8 -30 5 -3 6 8 4 25 -5 35 -12 38 -12 5z"/>
<path d="M4050 2876 c0 -3 14 -12 30 -21 17 -9 30 -13 30 -11 0 3 -13 12 -30
21 -16 9 -30 13 -30 11z"/>
<path d="M3968 2838 c5 -5 16 -8 23 -6 8 3 3 7 -10 11 -17 4 -21 3 -13 -5z"/>
<path d="M4290 2822 c0 -4 21 -23 46 -40 31 -23 45 -28 42 -17 -3 17 -88 72
-88 57z"/>
<path d="M3103 2666 c-145 -83 -263 -154 -263 -157 0 -3 236 -142 524 -310
l525 -304 7 -77 c6 -77 7 -77 38 -81 29 -4 29 -5 9 -12 -13 -4 -23 -14 -23
-21 0 -19 9 -18 48 6 36 22 43 50 12 50 -17 0 -20 7 -20 39 0 37 52 256 63
268 3 2 14 2 25 -1 19 -6 19 -8 -4 -84 -27 -87 -25 -106 11 -100 13 3 22 1 19
-3 -3 -5 -14 -9 -24 -9 -10 0 -22 -5 -26 -11 -5 -8 5 -10 32 -5 22 4 46 7 55
8 12 2 22 21 32 63 13 53 13 61 0 72 -11 9 -12 16 -3 32 6 11 15 20 21 18 6
-1 19 26 29 60 l18 61 -43 31 c-46 33 -48 32 -59 -12 -5 -22 -11 -27 -25 -22
-13 4 -20 0 -24 -15 -5 -18 -13 -20 -79 -20 -92 0 -107 10 -115 78 -3 28 -10
52 -14 52 -5 0 -9 5 -9 11 0 6 9 8 20 4 19 -6 20 -2 20 60 0 36 5 75 10 86 8
14 7 25 -5 41 -8 13 -15 32 -15 45 0 12 -4 25 -10 28 -5 3 -10 -3 -10 -15 0
-11 -7 -23 -17 -27 -21 -8 -66 43 -60 68 5 18 -29 49 -53 49 -19 0 -10 -39 11
-50 11 -7 18 -14 15 -17 -3 -3 -17 2 -31 11 -17 11 -25 25 -25 46 0 35 -17 49
-22 18 -5 -32 -24 -33 -54 -3 -18 18 -25 34 -22 50 3 14 0 26 -8 29 -10 4 -14
-4 -14 -25 0 -18 -4 -28 -10 -24 -5 3 -10 21 -10 40 0 20 -6 35 -15 39 -11 4
-15 -2 -15 -25 l0 -30 -30 16 c-24 12 -30 22 -30 48 0 28 -6 35 -48 58 l-47
26 -262 -151z m277 50 c0 -33 4 -37 90 -86 81 -47 111 -67 78 -55 -10 4 -12
-8 -8 -47 l4 -53 7 45 7 45 -1 -48 c-1 -38 4 -54 21 -72 24 -25 31 -98 10
-111 -6 -4 -8 -3 -4 4 3 6 2 13 -4 17 -5 3 -10 15 -10 26 0 10 -4 19 -10 19
-5 0 -10 -4 -10 -10 0 -5 -4 -10 -10 -10 -5 0 -10 18 -10 40 0 22 5 40 10 40
6 0 10 -9 10 -20 0 -11 4 -20 10 -20 23 0 -10 45 -51 67 -24 14 -35 18 -25 9
11 -9 23 -16 27 -16 5 0 9 -24 11 -52 2 -44 6 -53 21 -52 14 2 17 -5 15 -37
l-2 -39 -42 24 c-23 13 -92 52 -153 87 l-111 63 0 96 c1 59 5 101 13 111 12
16 96 69 110 69 4 0 7 -15 7 -34z m250 -182 c0 -2 -13 2 -30 11 -16 9 -30 18
-30 21 0 2 14 -2 30 -11 17 -9 30 -18 30 -21z m40 -156 c0 -10 -13 -10 -26 0
-5 4 -1 -1 10 -11 22 -20 14 -36 -9 -17 -9 8 -15 8 -15 2 0 -6 9 -14 20 -17
11 -3 20 -13 20 -22 0 -12 -3 -13 -15 -3 -8 6 -20 8 -26 4 -8 -4 -9 -3 -5 4 4
7 2 12 -3 12 -6 0 -11 20 -11 46 l0 45 30 -18 c17 -9 30 -21 30 -25z m47 -39
c6 -30 7 -31 19 -14 8 10 16 17 18 14 4 -4 9 -65 7 -82 -1 -4 -19 5 -41 19
-34 22 -40 32 -40 60 0 45 28 47 37 3z m116 -84 c16 -46 7 -62 -13 -25 -8 15
-17 19 -31 15 -23 -8 -24 -3 -4 36 19 37 29 32 48 -26z m-223 19 c0 -2 -9 0
-20 6 -11 6 -20 13 -20 16 0 2 9 0 20 -6 11 -6 20 -13 20 -16z"/>
<path d="M3330 2560 c0 -5 5 -10 11 -10 5 0 7 5 4 10 -3 6 -8 10 -11 10 -2 0
-4 -4 -4 -10z"/>
<path d="M3424 2524 c9 -8 16 -23 17 -32 0 -10 3 -12 5 -5 7 15 -13 53 -27 53
-6 0 -3 -7 5 -16z"/>
<path d="M3381 2493 c-10 -26 -10 -27 4 -9 8 11 15 23 15 28 0 15 -7 8 -19
-19z"/>
<path d="M3455 2470 c-3 -5 -2 -18 4 -27 7 -14 9 -12 8 10 -2 30 -3 31 -12 17z"/>
<path d="M3502 2435 c0 -16 2 -22 5 -12 2 9 2 23 0 30 -3 6 -5 -1 -5 -18z"/>
<path d="M3537 2340 c-3 -11 -1 -20 4 -20 5 0 9 9 9 20 0 11 -2 20 -4 20 -2 0
-6 -9 -9 -20z"/>
<path d="M4030 2810 c0 -5 9 -14 20 -20 11 -6 20 -9 20 -8 0 2 -9 11 -20 21
-11 9 -20 13 -20 7z"/>
<path d="M4211 2774 c0 -11 3 -14 6 -6 3 7 2 16 -1 19 -3 4 -6 -2 -5 -13z"/>
<path d="M4087 2769 c7 -7 15 -10 18 -7 3 3 -2 9 -12 12 -14 6 -15 5 -6 -5z"/>
<path d="M4270 2752 c0 -5 7 -9 15 -9 8 0 12 4 9 9 -3 4 -9 8 -15 8 -5 0 -9
-4 -9 -8z"/>
<path d="M4310 2737 c0 -2 11 -13 25 -25 14 -12 25 -18 25 -13 0 5 -11 16 -25
25 -14 9 -25 15 -25 13z"/>
<path d="M3475 2710 c3 -5 11 -10 16 -10 6 0 7 5 4 10 -3 6 -11 10 -16 10 -6
0 -7 -4 -4 -10z"/>
<path d="M4191 2704 c0 -11 3 -14 6 -6 3 7 2 16 -1 19 -3 4 -6 -2 -5 -13z"/>
<path d="M4336 2654 c-4 -14 -5 -28 -3 -31 3 -2 8 8 11 23 4 14 5 28 3 31 -3
2 -8 -8 -11 -23z"/>
<path d="M3610 2661 c0 -21 13 -41 26 -41 17 0 18 22 2 38 -14 14 -28 16 -28
3z"/>
<path d="M4240 2651 c0 -10 29 -36 34 -30 1 2 -6 12 -16 22 -10 9 -18 13 -18
8z"/>
<path d="M3953 2573 c-25 -17 -29 -43 -13 -74 13 -23 3 -25 -22 -2 -10 9 -21
13 -25 10 -9 -10 14 -57 28 -57 8 0 8 4 0 14 -10 12 -6 13 28 9 37 -5 41 -3
51 21 5 15 17 29 25 32 18 7 20 28 3 42 -24 19 -53 21 -75 5z"/>
<path d="M4380 2576 c0 -8 4 -17 9 -20 5 -4 7 3 4 14 -6 23 -13 26 -13 6z"/>
<path d="M3794 2556 c-6 -16 11 -46 27 -46 15 0 10 37 -6 50 -12 10 -16 9 -21
-4z"/>
<path d="M1154 2499 c-3 -6 -18 -9 -31 -6 -37 7 -100 -53 -109 -101 -3 -21 -8
-45 -11 -54 -3 -14 2 -18 21 -18 14 0 26 -3 26 -7 0 -3 -22 -30 -50 -59 -27
-29 -50 -59 -51 -66 0 -7 -2 -53 -4 -103 -1 -49 -5 -108 -9 -130 l-7 -40 63
-28 c63 -27 94 -32 136 -21 19 5 22 13 22 51 0 75 -31 242 -46 245 -11 2 -8
15 10 54 13 28 28 54 33 57 6 4 28 -11 50 -31 46 -42 276 -172 305 -172 10 0
77 32 148 71 93 51 130 76 130 89 0 15 -23 6 -127 -52 -71 -39 -139 -70 -153
-70 -14 0 -74 27 -133 61 -59 34 -112 59 -117 56 -6 -3 -11 -1 -11 4 -3 20 -5
26 -32 78 -15 29 -34 56 -44 61 -15 9 -14 11 5 23 12 8 22 21 22 31 0 9 9 18
22 20 34 5 32 26 -4 48 -38 23 -44 24 -54 9z"/>
<path d="M1620 2492 c0 -16 33 -38 158 -106 l122 -68 94 53 c52 29 92 57 90
61 -3 4 -1 8 3 8 5 0 18 7 29 16 10 8 -29 -10 -87 -40 -58 -31 -116 -56 -129
-56 -12 0 -78 32 -146 70 -130 73 -134 75 -134 62z"/>
<path d="M4283 2473 c-7 -3 -13 -9 -13 -15 0 -6 -8 -17 -17 -24 -16 -12 -16
-15 -3 -24 22 -15 25 -13 39 26 14 38 13 44 -6 37z"/>
<path d="M4055 2410 c-3 -5 1 -10 10 -10 9 0 13 5 10 10 -3 6 -8 10 -10 10 -2
0 -7 -4 -10 -10z"/>
<path d="M4160 2399 c0 -5 5 -7 10 -4 6 3 10 8 10 11 0 2 -4 4 -10 4 -5 0 -10
-5 -10 -11z"/>
<path d="M4192 2368 c-7 -7 -12 -18 -12 -25 0 -7 -4 -13 -9 -13 -12 0 -41 -29
-41 -40 0 -9 79 -70 90 -70 4 0 15 28 24 62 17 62 17 63 -4 80 -26 21 -32 22
-48 6z"/>
<path d="M1450 2350 c0 -5 8 -10 19 -10 11 0 23 -12 31 -30 l12 -30 34 21 c19
11 38 18 43 15 5 -4 12 -2 15 3 12 19 -25 19 -58 0 l-33 -19 -13 30 c-12 28
-50 44 -50 20z"/>
<path d="M2283 2333 c-7 -2 -13 -9 -13 -15 0 -7 4 -7 13 0 10 9 33 -1 95 -37
45 -27 82 -45 82 -41 0 7 -154 101 -162 99 -2 0 -9 -3 -15 -6z"/>
<path d="M4061 2277 l1 -52 13 35 c18 46 18 57 0 64 -12 4 -15 -4 -14 -47z"/>
<path d="M1357 2297 c-4 -10 0 -13 11 -11 9 3 37 1 62 -4 l45 -9 -37 -18 c-21
-10 -38 -23 -38 -28 0 -5 3 -7 8 -5 48 24 62 33 67 46 8 22 -3 29 -61 37 -40
5 -52 3 -57 -8z"/>
<path d="M1540 2273 c0 -10 100 -26 109 -18 8 9 -4 14 -57 21 -32 4 -52 3 -52
-3z"/>
<path d="M1530 2247 c0 -5 5 -18 11 -29 9 -16 8 -23 -2 -29 -10 -6 -10 -9 -2
-9 21 0 24 19 9 47 -8 16 -15 24 -16 20z"/>
<path d="M2080 2243 c1 -18 22 -33 149 -103 l134 -73 81 43 c163 88 191 106
194 124 3 14 -26 3 -131 -53 -74 -39 -140 -71 -147 -71 -7 0 -69 32 -139 70
-128 70 -141 76 -141 63z"/>
<path d="M1883 2073 c-7 -2 -13 -9 -13 -14 0 -4 7 -6 15 -3 13 5 102 -38 173
-84 12 -8 22 -10 22 -6 0 5 -39 32 -87 59 -101 58 -94 55 -110 48z"/>
<path d="M2020 2065 c-15 -18 1 -20 18 -3 9 9 15 9 24 0 17 -17 33 -15 18 3
-7 8 -20 15 -30 15 -10 0 -23 -7 -30 -15z"/>
<path d="M1685 1989 c-4 -5 -4 -13 -1 -18 9 -15 262 -151 281 -151 9 0 67 28
128 61 150 82 157 87 151 103 -4 10 -37 -4 -130 -55 -69 -37 -133 -71 -142
-73 -10 -4 -72 25 -149 68 -73 41 -135 70 -138 65z"/>
<path d="M1882 1987 c-9 -10 -4 -13 23 -13 27 0 32 3 23 13 -6 7 -16 13 -23
13 -7 0 -17 -6 -23 -13z"/>
<path d="M4000 1836 c0 -3 21 -17 46 -32 38 -22 47 -25 55 -13 13 21 -12 40
-60 45 -22 3 -41 3 -41 0z"/>
<path d="M955 1800 c-3 -11 -2 -28 4 -37 10 -17 10 -17 11 0 0 16 2 16 25 1
14 -9 32 -14 40 -10 11 4 15 -1 15 -19 0 -13 5 -27 12 -31 7 -5 8 -3 3 6 -6
10 -4 11 11 5 36 -15 64 -17 64 -6 0 6 -7 11 -15 11 -9 0 -20 11 -25 24 -7 19
-16 24 -39 24 -33 -1 -61 17 -61 38 0 22 -38 16 -45 -6z"/>
<path d="M4886 1681 c-4 -6 -22 -111 -41 -233 -20 -123 -39 -245 -44 -273 -8
-43 -7 -52 9 -65 17 -14 18 -20 5 -90 -8 -41 -14 -86 -13 -100 0 -14 8 18 17
70 10 52 22 94 27 93 6 -1 42 -20 80 -42 l69 -40 11 -83 c11 -71 10 -97 -7
-193 -21 -122 -24 -160 -10 -135 5 8 21 95 36 193 25 155 31 177 47 177 10 0
18 -5 18 -11 0 -5 5 -7 11 -3 6 3 15 0 20 -7 12 -20 17 -10 28 60 6 35 13 66
15 69 3 2 16 -2 30 -11 22 -15 24 -24 31 -134 4 -65 11 -136 16 -158 9 -42 5
72 -8 209 l-6 68 27 -17 26 -17 0 28 c0 16 -10 125 -22 242 l-22 212 -165 98
c-192 113 -177 106 -185 93z m16 -119 c2 -4 39 -29 83 -54 44 -25 96 -56 115
-67 76 -45 76 -44 63 -30 -7 7 -13 22 -13 32 0 11 -8 26 -17 34 -10 8 1 4 24
-9 24 -13 43 -30 43 -38 0 -33 -24 -170 -30 -170 -4 0 -5 -15 -3 -32 4 -27 2
-30 -7 -18 -9 12 -10 8 -6 -20 2 -19 -2 -66 -9 -105 l-14 -70 5 59 c3 33 8 66
12 74 3 10 1 13 -6 8 -8 -5 -12 0 -12 12 0 23 -46 48 -54 29 -2 -7 -5 -5 -5 4
-1 21 -48 52 -67 45 -8 -3 -14 1 -14 8 0 14 -48 51 -56 43 -3 -3 -16 6 -30 20
-14 14 -31 22 -39 19 -19 -7 -19 -3 2 127 15 96 25 123 35 99z m51 -351 c76
-46 137 -102 137 -126 0 -20 -6 -19 -40 5 -16 11 -31 17 -34 12 -3 -5 13 -19
35 -31 21 -12 37 -27 33 -32 -4 -6 -11 -6 -20 2 -8 6 -18 8 -22 4 -4 -4 -2 -9
3 -12 23 -8 39 -22 33 -29 -10 -9 -153 81 -150 95 1 8 -4 10 -15 7 -27 -8 -53
17 -51 48 3 28 8 32 25 15 6 -6 17 -8 24 -4 8 6 4 12 -15 22 -27 14 -37 37
-11 27 8 -4 15 -2 15 4 0 5 -7 12 -15 16 -8 3 -15 10 -15 16 0 6 3 9 8 7 4 -3
38 -23 75 -46z m174 -238 c-3 -10 -5 -4 -5 12 0 17 2 24 5 18 2 -7 2 -21 0
-30z m-91 3 c3 -8 1 -34 -4 -58 l-10 -43 -1 35 c-1 19 -4 45 -7 58 -7 24 13
32 22 8z"/>
<path d="M4964 1491 c10 -15 66 -44 66 -33 0 7 -20 20 -64 40 -5 3 -6 -1 -2
-7z"/>
<path d="M4995 1440 c3 -5 11 -10 16 -10 6 0 7 5 4 10 -3 6 -11 10 -16 10 -6
0 -7 -4 -4 -10z"/>
<path d="M4955 1430 c3 -5 8 -10 11 -10 2 0 4 5 4 10 0 6 -5 10 -11 10 -5 0
-7 -4 -4 -10z"/>
<path d="M5000 1410 c0 -5 5 -10 11 -10 5 0 7 5 4 10 -3 6 -8 10 -11 10 -2 0
-4 -4 -4 -10z"/>
<path d="M5040 1415 c0 -2 15 -12 33 -20 l32 -16 -25 20 c-24 20 -40 26 -40
16z"/>
<path d="M4950 1405 c0 -2 15 -12 33 -20 l32 -16 -24 21 c-22 19 -41 26 -41
15z"/>
<path d="M5120 1400 c0 -5 5 -10 11 -10 5 0 7 5 4 10 -3 6 -8 10 -11 10 -2 0
-4 -4 -4 -10z"/>
<path d="M5030 1390 c0 -5 5 -10 11 -10 5 0 7 5 4 10 -3 6 -8 10 -11 10 -2 0
-4 -4 -4 -10z"/>
<path d="M4940 1380 c0 -6 7 -10 15 -10 8 0 15 2 15 4 0 2 -7 6 -15 10 -8 3
-15 1 -15 -4z"/>
<path d="M4980 1362 c0 -12 19 -26 26 -19 2 2 -2 10 -11 17 -9 8 -15 8 -15 2z"/>
<path d="M5020 1367 c0 -3 16 -14 35 -26 19 -11 35 -17 35 -12 0 7 -14 15 -62
39 -5 2 -8 1 -8 -1z"/>
<path d="M5075 1360 c3 -5 8 -10 11 -10 2 0 4 5 4 10 0 6 -5 10 -11 10 -5 0
-7 -4 -4 -10z"/>
<path d="M5110 1341 c0 -10 30 -24 37 -17 3 2 -5 9 -16 16 -12 6 -21 7 -21 1z"/>
<path d="M4950 1310 c14 -10 27 -16 30 -13 6 6 -30 33 -44 33 -6 0 0 -9 14
-20z"/>
<path d="M5035 1290 c17 -11 35 -20 40 -20 6 0 -3 9 -20 20 -16 11 -34 20 -40
20 -5 0 4 -9 20 -20z"/>
<path d="M5010 1281 c0 -6 14 -17 30 -26 17 -9 30 -13 30 -11 0 3 -13 14 -30
26 -16 12 -30 17 -30 11z"/>
<path d="M5120 1270 c20 -13 33 -13 25 0 -3 6 -14 10 -23 10 -15 0 -15 -2 -2
-10z"/>
<path d="M5090 1262 c0 -5 11 -14 25 -20 14 -6 25 -10 25 -8 0 2 -11 11 -25
20 -14 9 -25 13 -25 8z"/>
<path d="M2773 1655 c-77 -21 -145 -59 -181 -100 -42 -47 -45 -109 -6 -154 36
-43 149 -97 236 -111 200 -34 440 32 501 137 48 84 -48 184 -218 228 -75 19
-260 19 -332 0z"/>
<path d="M1587 1162 c-172 -94 -204 -118 -194 -146 4 -10 313 -182 545 -302
l51 -26 190 103 c139 75 191 108 191 121 0 16 -14 12 -92 -27 -51 -25 -86 -40
-78 -33 12 10 14 29 10 86 -3 42 -1 77 5 83 7 7 4 8 -9 3 -13 -5 -17 -4 -12 4
5 8 2 10 -8 6 -9 -4 -18 0 -22 10 -6 15 -369 216 -390 216 -5 0 -89 -44 -187
-98z m380 -113 c37 -97 41 -129 16 -129 -30 1 -254 67 -266 79 -8 8 -7 15 3
26 23 21 194 115 205 111 6 -1 24 -41 42 -87z"/>
<path d="M3960 967 c-61 -30 -94 -143 -50 -167 31 -16 77 13 102 64 34 71 4
131 -52 103z"/>
<path d="M4792 865 c0 -16 2 -22 5 -12 2 9 2 23 0 30 -3 6 -5 -1 -5 -18z"/>
<path d="M4775 780 c-4 -28 -5 -53 -2 -56 2 -3 7 19 11 47 4 28 5 53 3 56 -3
2 -8 -19 -12 -47z"/>
</g>
</svg>
